<svg xmlns="http://www.w3.org/2000/svg" viewBox="0 0 999.88 299.92"><defs><style>.cls-1{fill:#00638f;}</style></defs><g id="Layer_2" data-name="Layer 2"><g id="Layer_1-2" data-name="Layer 1"><path class="cls-1" d="M313.94,221.13a20,20,0,0,1-6.55-1.07,15.77,15.77,0,0,1-5.49-3.21l4-4.74a13.06,13.06,0,0,0,8.32,3.08,4.2,4.2,0,0,0,2.19-.46,1.44,1.44,0,0,0,.75-1.3v-.07a1.43,1.43,0,0,0-.18-.72,2,2,0,0,0-.68-.6,7.09,7.09,0,0,0-1.32-.57c-.55-.18-1.27-.37-2.15-.57-1.37-.31-2.64-.66-3.82-1a11.75,11.75,0,0,1-3.06-1.47,6.52,6.52,0,0,1-2.05-2.23,6.67,6.67,0,0,1-.75-3.31v-.08a7.93,7.93,0,0,1,.67-3.29,7.48,7.48,0,0,1,2-2.6,9.4,9.4,0,0,1,3.14-1.71,13.32,13.32,0,0,1,4.15-.6,18.47,18.47,0,0,1,5.89.87,14.87,14.87,0,0,1,4.67,2.56l-3.56,5a14,14,0,0,0-3.61-1.88,10.86,10.86,0,0,0-3.58-.65A3.2,3.2,0,0,0,311,201a1.41,1.41,0,0,0-.64,1.17v.08a1.37,1.37,0,0,0,.2.76,1.83,1.83,0,0,0,.69.61,8.78,8.78,0,0,0,1.36.55c.58.18,1.3.37,2.18.57a31.56,31.56,0,0,1,4,1.11,12,12,0,0,1,3,1.56,6.29,6.29,0,0,1,1.91,2.21,6.78,6.78,0,0,1,.66,3.1v.07a8,8,0,0,1-.75,3.52,7.64,7.64,0,0,1-2.11,2.62,9.48,9.48,0,0,1-3.27,1.64A14.82,14.82,0,0,1,313.94,221.13Z"/><path class="cls-1" d="M327.92,195h7.15v25.68h-7.15Z"/><path class="cls-1" d="M349.85,221.13a19.93,19.93,0,0,1-6.54-1.07,15.77,15.77,0,0,1-5.49-3.21l4-4.74a13.11,13.11,0,0,0,8.33,3.08,4.19,4.19,0,0,0,2.18-.46,1.45,1.45,0,0,0,.76-1.3v-.07a1.43,1.43,0,0,0-.19-.72,1.87,1.87,0,0,0-.68-.6,7.09,7.09,0,0,0-1.32-.57c-.55-.18-1.26-.37-2.14-.57-1.37-.31-2.64-.66-3.82-1a11.75,11.75,0,0,1-3.06-1.47,6.55,6.55,0,0,1-2.06-2.23,6.67,6.67,0,0,1-.75-3.31v-.08a7.94,7.94,0,0,1,.68-3.29,7.25,7.25,0,0,1,2-2.6,9.3,9.3,0,0,1,3.14-1.71,13.26,13.26,0,0,1,4.14-.6,18.43,18.43,0,0,1,5.89.87,14.81,14.81,0,0,1,4.68,2.56L356,203a14.17,14.17,0,0,0-3.61-1.88,10.91,10.91,0,0,0-3.58-.65,3.21,3.21,0,0,0-1.93.48,1.44,1.44,0,0,0-.64,1.17v.08a1.46,1.46,0,0,0,.2.76,2,2,0,0,0,.7.61,8.39,8.39,0,0,0,1.36.55c.57.18,1.3.37,2.18.57a31.38,31.38,0,0,1,4,1.11,12,12,0,0,1,3,1.56,6.29,6.29,0,0,1,1.91,2.21,6.78,6.78,0,0,1,.66,3.1v.07a8,8,0,0,1-.76,3.52,7.53,7.53,0,0,1-2.11,2.62,9.35,9.35,0,0,1-3.26,1.64A14.84,14.84,0,0,1,349.85,221.13Z"/><path class="cls-1" d="M370,201.25h-7.71V195h22.53v6.24h-7.7v19.44H370Z"/><path class="cls-1" d="M387.9,195h20.62v6.05H394.9V205h12.33v5.62H394.9v4.07h13.8v6.05H387.9Z"/><path class="cls-1" d="M412.37,195h7.52L426,205l6.12-9.94h7.52v25.68h-7.08V205.94L426,216h-.14l-6.52-10v14.67h-7Z"/><path class="cls-1" d="M453.09,194.83H460l10.93,25.86h-7.63l-1.87-4.58h-9.9l-1.84,4.58h-7.48Zm6.24,15.77-2.87-7.3-2.89,7.3Z"/><path class="cls-1" d="M483.54,195h9.9a18.56,18.56,0,0,1,6.15.94,12.86,12.86,0,0,1,4.55,2.62,11.06,11.06,0,0,1,2.82,4,13.11,13.11,0,0,1,1,5.11v.08a13.2,13.2,0,0,1-1,5.15,11.54,11.54,0,0,1-2.87,4.09,13.2,13.2,0,0,1-4.6,2.7,18.3,18.3,0,0,1-6.18,1h-9.76Zm10,19.37a7.57,7.57,0,0,0,5.15-1.69,6,6,0,0,0,1.95-4.8v-.08a6,6,0,0,0-1.95-4.78,7.53,7.53,0,0,0-5.15-1.71h-2.91v13.06Z"/><path class="cls-1" d="M511.6,195h20.62v6.05H518.61V205h12.33v5.62H518.61v4.07h13.8v6.05H511.6Z"/><path class="cls-1" d="M303.85,239H316a15.06,15.06,0,0,1,5,.73,8.64,8.64,0,0,1,3.34,2,8,8,0,0,1,2.27,6v.08a8.07,8.07,0,0,1-1.43,4.91,9,9,0,0,1-3.85,3l6.13,9h-8.22l-5.18-7.78H311v7.78h-7.12Zm11.81,12.32a4.32,4.32,0,0,0,2.83-.82,2.74,2.74,0,0,0,1-2.22v-.08a2.67,2.67,0,0,0-1-2.29,4.7,4.7,0,0,0-2.82-.75H311v6.16Z"/><path class="cls-1" d="M330.23,239h20.61v6.05H337.23V249h12.33v5.61H337.23v4.07H351v6.06h-20.8Z"/><path class="cls-1" d="M367.79,265.23a15.41,15.41,0,0,1-5.55-1,13.28,13.28,0,0,1-4.43-2.74,12.66,12.66,0,0,1-2.93-4.2,13.23,13.23,0,0,1-1.06-5.37v-.08a13.06,13.06,0,0,1,8.27-12.32,14.54,14.54,0,0,1,5.52-1,15.86,15.86,0,0,1,5.89,1,16.21,16.21,0,0,1,4.53,2.75l-4.18,5a11.67,11.67,0,0,0-2.85-1.8,8.48,8.48,0,0,0-3.35-.62,6,6,0,0,0-2.59.55,6.59,6.59,0,0,0-2.07,1.5,7.29,7.29,0,0,0-1.91,5V252a7.69,7.69,0,0,0,.52,2.86,6.28,6.28,0,0,0,1.45,2.25,6.58,6.58,0,0,0,2.21,1.47,7.07,7.07,0,0,0,2.81.53A7.39,7.39,0,0,0,372.2,258v-3.12h-5.07v-5.21H379v11.56a18.9,18.9,0,0,1-4.85,2.82A16.51,16.51,0,0,1,367.79,265.23Z"/><path class="cls-1" d="M394.46,265.19a16.54,16.54,0,0,1-4.95-.69,9.62,9.62,0,0,1-3.74-2.15,9.48,9.48,0,0,1-2.37-3.67,15,15,0,0,1-.82-5.23V239h7.26v14.27a5.78,5.78,0,0,0,1.28,4.12,4.47,4.47,0,0,0,3.42,1.34,4.62,4.62,0,0,0,3.42-1.28,5.49,5.49,0,0,0,1.27-4V239h7.27v14.23a15.12,15.12,0,0,1-.86,5.37,9.37,9.37,0,0,1-6.2,5.86A16.75,16.75,0,0,1,394.46,265.19Z"/><path class="cls-1" d="M410.72,239h7.11v19.44h12.44v6.24H410.72Z"/><path class="cls-1" d="M442.2,238.85h6.85L460,264.72h-7.63l-1.87-4.59h-9.91l-1.83,4.59h-7.49Zm6.23,15.78-2.86-7.3-2.9,7.3Z"/><path class="cls-1" d="M468.65,268.71l2.86-3.88a13.62,13.62,0,0,1-4-1.71,12.51,12.51,0,0,1-3.14-2.84,13.14,13.14,0,0,1-2.05-3.8,13.71,13.71,0,0,1-.74-4.53v-.08a13.21,13.21,0,0,1,1-5.22,13.36,13.36,0,0,1,2.82-4.26,12.87,12.87,0,0,1,4.28-2.84,13.87,13.87,0,0,1,5.41-1,15.4,15.4,0,0,1,3.6.39,12.07,12.07,0,0,1,2.95,1.1,11.56,11.56,0,0,1,2.42,1.7,14.2,14.2,0,0,1,1.93,2.17L480.68,248a9.22,9.22,0,0,0-2.42-2.2,6,6,0,0,0-3.19-.81,5.64,5.64,0,0,0-2.48.54,5.74,5.74,0,0,0-1.93,1.45,6.79,6.79,0,0,0-1.26,2.16,7.48,7.48,0,0,0-.46,2.64v.07a7.73,7.73,0,0,0,.46,2.7,6.68,6.68,0,0,0,1.26,2.18,5.74,5.74,0,0,0,1.93,1.45,5.64,5.64,0,0,0,2.48.54,7.3,7.3,0,0,0,1.81-.22,5.52,5.52,0,0,0,1.51-.65,8,8,0,0,0,1.28-1,16.1,16.1,0,0,0,1.19-1.26l5.36,3.81a19.64,19.64,0,0,1-1.82,2.13,11.14,11.14,0,0,1-2.18,1.73,13.81,13.81,0,0,1-6,1.87l-2.05,5.9Z"/><path class="cls-1" d="M498.14,238.85H505l10.94,25.87H508.3l-1.87-4.59h-9.9l-1.84,4.59h-7.48Zm-4.29-2.2a10.67,10.67,0,0,1,1.61-4.11,3.49,3.49,0,0,1,2.94-1.36,6.81,6.81,0,0,1,1.65.22c.56.15,1.09.32,1.6.5s1,.35,1.39.49a3.38,3.38,0,0,0,1.08.22,1.44,1.44,0,0,0,1.14-.42,5,5,0,0,0,.73-1.26l3.34.91a10.53,10.53,0,0,1-1.61,4.11,3.47,3.47,0,0,1-2.94,1.36,6.33,6.33,0,0,1-1.67-.22c-.55-.15-1.07-.31-1.57-.49l-1.4-.5a3.38,3.38,0,0,0-1.08-.22,1.45,1.45,0,0,0-1.14.42,4.9,4.9,0,0,0-.73,1.27Zm10.53,18-2.86-7.3-2.9,7.3Z"/><path class="cls-1" d="M531.34,265.23a14.22,14.22,0,0,1-5.5-1.05,13.47,13.47,0,0,1-4.37-2.84,13.18,13.18,0,0,1-2.88-4.22,13,13,0,0,1-1-5.17v-.08a13,13,0,0,1,4-9.44,13.82,13.82,0,0,1,4.4-2.86,15,15,0,0,1,11,0,13.47,13.47,0,0,1,4.37,2.84,13.18,13.18,0,0,1,2.88,4.22,13,13,0,0,1,1,5.17v.07a13.19,13.19,0,0,1-1,5.2,13.06,13.06,0,0,1-2.92,4.25,13.82,13.82,0,0,1-4.4,2.86A14.23,14.23,0,0,1,531.34,265.23Zm.06-6.42a6.36,6.36,0,0,0,2.68-.55,6.1,6.1,0,0,0,2.06-1.49,6.79,6.79,0,0,0,1.33-2.18A7.27,7.27,0,0,0,538,252v-.08a7.35,7.35,0,0,0-.48-2.64,6.67,6.67,0,0,0-3.46-3.72,6.67,6.67,0,0,0-5.35,0A6.3,6.3,0,0,0,526.6,247a6.46,6.46,0,0,0-1.33,2.18,7.71,7.71,0,0,0-.46,2.64v.07a7.33,7.33,0,0,0,.48,2.65,7.14,7.14,0,0,0,1.34,2.2,6.62,6.62,0,0,0,2.08,1.52A6.27,6.27,0,0,0,531.4,258.81Z"/><path class="cls-1" d="M559.08,239H569a18.84,18.84,0,0,1,6.15.93,13,13,0,0,1,4.55,2.62,11.36,11.36,0,0,1,2.82,4,13.12,13.12,0,0,1,1,5.12v.07a13.26,13.26,0,0,1-1,5.16,11.6,11.6,0,0,1-2.86,4.09,13,13,0,0,1-4.6,2.69,18.3,18.3,0,0,1-6.18,1h-9.76Zm10,19.37a7.63,7.63,0,0,0,5.16-1.69,6,6,0,0,0,2-4.81v-.07a6,6,0,0,0-2-4.79,7.54,7.54,0,0,0-5.16-1.71h-2.9v13.07Z"/><path class="cls-1" d="M587.14,239h20.62v6.05H594.15V249h12.33v5.61H594.15v4.07H608v6.06H587.14Z"/><path class="cls-1" d="M621.78,239h7.11v19.44h12.44v6.24H621.78Z"/><path class="cls-1" d="M644.37,239H665v6.05H651.38V249h12.33v5.61H651.38v4.07h13.8v6.06H644.37Z"/><path class="cls-1" d="M669,239h7.16v25.68H669Z"/><path class="cls-1" d="M687.11,245.27h-7.7V239h22.53v6.23h-7.71v19.45h-7.12Z"/><path class="cls-1" d="M718,265.23a14.27,14.27,0,0,1-5.51-1.05,13.43,13.43,0,0,1-4.36-2.84,13.18,13.18,0,0,1-2.88-4.22,12.85,12.85,0,0,1-1.05-5.17v-.08a13.08,13.08,0,0,1,4-9.44,13.6,13.6,0,0,1,4.4-2.86,14.93,14.93,0,0,1,11,0,13.37,13.37,0,0,1,4.37,2.84,13.18,13.18,0,0,1,2.88,4.22,12.84,12.84,0,0,1,1,5.17v.07a13,13,0,0,1-4,9.45,13.6,13.6,0,0,1-4.4,2.86A14.22,14.22,0,0,1,718,265.23Zm0-6.42a6.41,6.41,0,0,0,2.69-.55,6.2,6.2,0,0,0,2.06-1.49,7,7,0,0,0,1.32-2.18,7.27,7.27,0,0,0,.48-2.64v-.08a7.35,7.35,0,0,0-.48-2.64,6.67,6.67,0,0,0-3.46-3.72,6.19,6.19,0,0,0-2.68-.57,6.28,6.28,0,0,0-2.67.55,6.41,6.41,0,0,0-2.06,1.49,6.28,6.28,0,0,0-1.32,2.18,7.48,7.48,0,0,0-.46,2.64v.07a7.33,7.33,0,0,0,.48,2.65,6.78,6.78,0,0,0,1.34,2.2,6.5,6.5,0,0,0,2.08,1.52A6.22,6.22,0,0,0,718,258.81Z"/><path class="cls-1" d="M745.63,265.16a20,20,0,0,1-6.55-1.07,15.9,15.9,0,0,1-5.48-3.22l4-4.74a13,13,0,0,0,8.33,3.08,4.19,4.19,0,0,0,2.18-.46,1.42,1.42,0,0,0,.75-1.29v-.08a1.36,1.36,0,0,0-.18-.71,1.88,1.88,0,0,0-.68-.61,7.14,7.14,0,0,0-1.32-.56,19.29,19.29,0,0,0-2.15-.57q-2.06-.48-3.81-1.05a11.35,11.35,0,0,1-3.07-1.46,6.24,6.24,0,0,1-2.8-5.55v-.07a7.8,7.8,0,0,1,.68-3.3,7.25,7.25,0,0,1,2-2.6,9.23,9.23,0,0,1,3.13-1.7,13.36,13.36,0,0,1,4.15-.61,18.47,18.47,0,0,1,5.89.87,15.06,15.06,0,0,1,4.68,2.57l-3.56,5a14.6,14.6,0,0,0-3.62-1.89,10.78,10.78,0,0,0-3.57-.64,3.29,3.29,0,0,0-1.93.47,1.42,1.42,0,0,0-.64,1.18v.07a1.5,1.5,0,0,0,.2.77,1.78,1.78,0,0,0,.7.6,7,7,0,0,0,1.35.55c.58.19,1.31.37,2.19.57a31.81,31.81,0,0,1,4,1.12,11.71,11.71,0,0,1,3,1.55,6.13,6.13,0,0,1,1.91,2.22,6.77,6.77,0,0,1,.66,3.09v.08a7.91,7.91,0,0,1-.75,3.51,7.44,7.44,0,0,1-2.11,2.62,9.54,9.54,0,0,1-3.26,1.65A14.89,14.89,0,0,1,745.63,265.16Z"/><path class="cls-1" d="M148,2.8h66.25q16.22,0,27.43,4A46.85,46.85,0,0,1,259.89,18Q272.3,30,272.3,50.64V51q0,16.21-7.81,26.82a49.37,49.37,0,0,1-21,16.22l33.42,48.84H232.07l-28.23-42.44h-17v42.44H148Zm64.45,67.26q10,0,15.41-4.51a14.92,14.92,0,0,0,5.41-12.11V53q0-8.4-5.61-12.51t-15.41-4.1H186.83V70.06Z"/><path class="cls-1" d="M291.92,2.8H404.41v33H330.15V57.05H397.4V87.67H330.15v22.22h75.26v33H291.92Z"/><path class="cls-1" d="M496.88,145.72a84.41,84.41,0,0,1-30.33-5.31,72.29,72.29,0,0,1-24.12-14.91,68.88,68.88,0,0,1-16-22.92,72.52,72.52,0,0,1-5.8-29.32v-.4a72.45,72.45,0,0,1,21.31-51.74A70.71,70.71,0,0,1,465.78,5.61,79.57,79.57,0,0,1,495.88,0Q514.5,0,528,5.41a87.69,87.69,0,0,1,24.72,15L529.91,47.84A63,63,0,0,0,514.39,38a46,46,0,0,0-18.31-3.4,33.23,33.23,0,0,0-14.11,3,35.36,35.36,0,0,0-11.31,8.21,39.45,39.45,0,0,0-7.61,12.21,40,40,0,0,0-2.8,15v.4a42.45,42.45,0,0,0,2.81,15.61A35.1,35.1,0,0,0,471,101.38a37.14,37.14,0,0,0,12.05,8,39.47,39.47,0,0,0,15.36,2.9q13.67,0,22.5-5.8v-17H493.28V61.05h64.45V124.1a101.84,101.84,0,0,1-26.42,15.41Q516.09,145.72,496.88,145.72Z"/><path class="cls-1" d="M642.4,145.52a89.24,89.24,0,0,1-27-3.81A52.31,52.31,0,0,1,595,130a51.63,51.63,0,0,1-12.91-20q-4.51-12.1-4.51-28.52V2.8h39.63V80.67q0,15.21,7,22.51t18.68,7.31q11.72,0,18.66-7t7-21.81V2.8h39.63V80.47q0,17-4.71,29.32A52.71,52.71,0,0,1,690.13,130a53.12,53.12,0,0,1-20.61,11.7A90.21,90.21,0,0,1,642.4,145.52Z"/><path class="cls-1" d="M731.07,2.8H769.9V108.89h67.85v34H731.07Z"/><path class="cls-1" d="M902.8,1.8h37.43l59.65,141.12H958.25L948,117.9H894l-10,25H843.16Zm34,86.07L921.22,48,905.41,87.87Z"/><path class="cls-1" d="M0,159.8H66.25q16.22,0,27.43,4A46.85,46.85,0,0,1,111.89,175q12.4,12,12.41,32.62v.4q0,16.22-7.81,26.82a49.37,49.37,0,0,1-21,16.22l33.42,48.84H84.07L55.84,257.48h-17v42.44H0Zm64.45,67.26q10,0,15.41-4.51a14.92,14.92,0,0,0,5.41-12.11V210q0-8.4-5.61-12.51t-15.41-4.1H38.83v33.63Z"/><path class="cls-1" d="M143.92,159.8h36.3L238,233.86V159.8h38.23V299.92h-34.1l-60-76.87v76.87H143.92Z"/></g></g></svg>